<?xml version="1.0" encoding="UTF-8" standalone="no"?>
<!-- Created with Inkscape (http://www.inkscape.org/) -->

<svg
   xmlns:dc="http://purl.org/dc/elements/1.1/"
   xmlns:cc="http://creativecommons.org/ns#"
   xmlns:rdf="http://www.w3.org/1999/02/22-rdf-syntax-ns#"
   xmlns:svg="http://www.w3.org/2000/svg"
   xmlns="http://www.w3.org/2000/svg"
   xmlns:sodipodi="http://sodipodi.sourceforge.net/DTD/sodipodi-0.dtd"
   xmlns:inkscape="http://www.inkscape.org/namespaces/inkscape"
   width="250"
   height="75"
   viewBox="0 0 66.145835 19.84375"
   version="1.1"
   id="svg674"
   inkscape:version="0.92.4 (unknown)"
   sodipodi:docname="educacion_chile.svg">
  <defs
     id="defs668" />
  <sodipodi:namedview
     id="base"
     pagecolor="#ffffff"
     bordercolor="#666666"
     borderopacity="1.0"
     inkscape:pageopacity="0.0"
     inkscape:pageshadow="2"
     inkscape:zoom="1.9820591"
     inkscape:cx="207.04633"
     inkscape:cy="5.6035128"
     inkscape:document-units="mm"
     inkscape:current-layer="layer1"
     showgrid="false"
     units="px"
     inkscape:window-width="1920"
     inkscape:window-height="1016"
     inkscape:window-x="1600"
     inkscape:window-y="27"
     inkscape:window-maximized="1" />
  <metadata
     id="metadata671">
    <rdf:RDF>
      <cc:Work
         rdf:about="">
        <dc:format>image/svg+xml</dc:format>
        <dc:type
           rdf:resource="http://purl.org/dc/dcmitype/StillImage" />
        <dc:title></dc:title>
      </cc:Work>
    </rdf:RDF>
  </metadata>
  <g
     inkscape:label="Capa 1"
     inkscape:groupmode="layer"
     id="layer1"
     transform="translate(0,-277.15626)">
    <g
       id="g900"
       transform="matrix(0.75333321,0,0,0.75333321,3.5155934,70.817442)"
       style="fill:#ffffff">
      <g
         transform="matrix(0.1413382,0,0,-0.1413382,20.838795,291.02601)"
         id="g79"
         style="fill:#ffffff">
        <path
           inkscape:connector-curvature="0"
           id="path81"
           style="fill:#ffffff;fill-opacity:1;fill-rule:nonzero;stroke:none"
           d="m 0,0 h -118.655 c -14.488,0 -27.206,10.675 -28.642,25.092 -0.691,6.938 1.174,13.431 4.766,18.651 l 2.306,3.182 28.849,34.654 c 5.788,7.53 14.826,11.972 24.311,11.972 0.204,0 0.407,-0.001 0.612,-0.006 L 28.095,93.517 c 3.184,-0.068 5.986,-2.349 6.571,-5.663 0.348,-1.969 -0.282,-3.978 -1.518,-5.549 C 28.775,76.75 13.055,56.781 5.603,47.315 3.091,44.124 -0.739,42.269 -4.801,42.269 h -114.302 c -6.719,0 -12.86,-4.446 -14.344,-10.998 -2.116,-9.341 4.964,-17.657 13.949,-17.657 H -3.346 c 2.46,0 4.781,1.141 6.285,3.088 l 26.702,34.576 c 2.053,2.658 5.751,3.747 8.726,2.188 3.872,-2.03 4.821,-6.922 2.275,-10.218 L 11.671,5.733 C 8.879,2.117 4.568,0 0,0" />
      </g>
      <g
         transform="matrix(0.1413382,0,0,-0.1413382,21.677158,297.00001)"
         id="g83"
         style="fill:#ffffff">
        <path
           inkscape:connector-curvature="0"
           id="path85"
           style="fill:#ffffff;fill-opacity:1;fill-rule:nonzero;stroke:none"
           d="m 0,0 h -124.498 c -14.373,0 -27.101,10.463 -28.694,24.748 -1.862,16.694 11.093,30.904 27.366,31.131 3.468,0.048 6.681,-2.428 7.141,-5.865 0.563,-4.217 -2.737,-7.813 -6.859,-7.746 -4.347,0.072 -8.719,-1.349 -11.152,-4.952 -7.735,-11.457 0.364,-23.702 11.267,-23.702 H -3.445 c 2.527,0 4.902,1.203 6.399,3.239 L 28.47,50.845 c 2.009,2.733 5.738,3.894 8.758,2.35 3.847,-1.967 4.877,-6.786 2.429,-10.118 L 11.884,6.014 C 9.105,2.233 4.692,0 0,0" />
      </g>
      <g
         transform="matrix(0.1413382,0,0,-0.1413382,37.719382,283.3785)"
         id="g87"
         style="fill:#ffffff">
        <path
           inkscape:connector-curvature="0"
           id="path89"
           style="fill:#ffffff;fill-opacity:1;fill-rule:nonzero;stroke:none"
           d="M 0,0 V -9.517 H -27.27 V 40.196 H -0.638 V 30.68 H -16.902 V 22.087 H -2.344 V 12.783 H -16.902 V 0 Z" />
      </g>
      <g
         transform="matrix(0.1413382,0,0,-0.1413382,42.025605,283.28818)"
         id="g91"
         style="fill:#ffffff">
        <path
           inkscape:connector-curvature="0"
           id="path93"
           style="fill:#ffffff;fill-opacity:1;fill-rule:nonzero;stroke:none"
           d="m 0,0 c 1.846,1.657 2.77,3.811 2.77,6.463 0,2.651 -0.913,4.794 -2.735,6.427 -1.823,1.633 -4.06,2.45 -6.711,2.45 -2.652,0 -4.889,-0.817 -6.711,-2.45 -1.823,-1.633 -2.735,-3.776 -2.735,-6.427 0,-2.652 0.912,-4.794 2.735,-6.428 1.822,-1.633 4.059,-2.45 6.711,-2.45 C -4.025,-2.415 -1.8,-1.61 0,0 M 12.357,43.108 V -10.156 H 2.982 v 4.333 c -2.746,-3.457 -6.652,-5.185 -11.717,-5.185 -4.688,0 -8.653,1.68 -11.896,5.042 -3.244,3.362 -4.865,7.504 -4.865,12.429 0,4.923 1.621,9.066 4.865,12.428 3.243,3.361 7.208,5.042 11.896,5.042 5.065,0 8.971,-1.729 11.717,-5.184 v 24.359 z" />
      </g>
      <g
         transform="matrix(0.1413382,0,0,-0.1413382,44.946387,280.02596)"
         id="g95"
         style="fill:#ffffff">
        <path
           inkscape:connector-curvature="0"
           id="path97"
           style="fill:#ffffff;fill-opacity:1;fill-rule:nonzero;stroke:none"
           d="m 0,0 h 9.374 v -19.601 c 0,-1.894 0.556,-3.421 1.67,-4.58 1.111,-1.162 2.543,-1.741 4.295,-1.741 1.751,0 3.185,0.579 4.297,1.741 1.113,1.159 1.669,2.686 1.669,4.58 V 0 h 9.375 v -33.237 h -9.375 v 3.551 c -2.51,-2.936 -5.752,-4.403 -9.729,-4.403 -3.267,0 -6.014,1.124 -8.239,3.374 C 1.111,-28.468 0,-25.495 0,-21.803 Z" />
      </g>
      <g
         transform="matrix(0.1413382,0,0,-0.1413382,52.745486,279.90554)"
         id="g99"
         style="fill:#ffffff">
        <path
           inkscape:connector-curvature="0"
           id="path101"
           style="fill:#ffffff;fill-opacity:1;fill-rule:nonzero;stroke:none"
           d="m 0,0 c 5.398,0 9.989,-1.965 13.778,-5.894 l -6.747,-5.824 c -1.704,2.083 -4.025,3.125 -6.959,3.125 -2.414,0 -4.486,-0.841 -6.215,-2.521 -1.729,-1.681 -2.591,-3.8 -2.591,-6.356 0,-2.557 0.862,-4.676 2.591,-6.356 1.729,-1.682 3.801,-2.522 6.215,-2.522 2.934,0 5.255,1.041 6.959,3.125 l 6.747,-5.824 C 9.989,-32.977 5.398,-34.941 0,-34.941 c -5.019,0 -9.303,1.692 -12.854,5.078 -3.551,3.385 -5.326,7.516 -5.326,12.393 0,4.876 1.775,9.007 5.326,12.393 C -9.303,-1.693 -5.019,0 0,0" />
      </g>
      <g
         transform="matrix(0.1413382,0,0,-0.1413382,58.718,283.28818)"
         id="g103"
         style="fill:#ffffff">
        <path
           inkscape:connector-curvature="0"
           id="path105"
           style="fill:#ffffff;fill-opacity:1;fill-rule:nonzero;stroke:none"
           d="m 0,0 c 1.846,1.657 2.77,3.811 2.77,6.463 0,2.651 -0.913,4.794 -2.735,6.427 -1.823,1.633 -4.06,2.45 -6.711,2.45 -2.652,0 -4.889,-0.817 -6.711,-2.45 -1.823,-1.633 -2.735,-3.776 -2.735,-6.427 0,-2.652 0.912,-4.794 2.735,-6.428 1.822,-1.633 4.059,-2.45 6.711,-2.45 C -4.025,-2.415 -1.8,-1.61 0,0 M 12.357,23.081 V -10.156 H 2.982 v 4.333 c -2.746,-3.457 -6.652,-5.185 -11.717,-5.185 -4.688,0 -8.653,1.68 -11.896,5.042 -3.244,3.362 -4.865,7.504 -4.865,12.429 0,4.923 1.621,9.066 4.865,12.428 3.243,3.361 7.208,5.042 11.896,5.042 5.065,0 8.971,-1.729 11.717,-5.184 v 4.332 z" />
      </g>
      <g
         transform="matrix(0.1413382,0,0,-0.1413382,63.927415,279.90554)"
         id="g107"
         style="fill:#ffffff">
        <path
           inkscape:connector-curvature="0"
           id="path109"
           style="fill:#ffffff;fill-opacity:1;fill-rule:nonzero;stroke:none"
           d="m 0,0 c 5.398,0 9.989,-1.965 13.778,-5.894 l -6.747,-5.824 c -1.704,2.083 -4.025,3.125 -6.959,3.125 -2.414,0 -4.486,-0.841 -6.215,-2.521 -1.729,-1.681 -2.591,-3.8 -2.591,-6.356 0,-2.557 0.862,-4.676 2.591,-6.356 1.729,-1.682 3.801,-2.522 6.215,-2.522 2.934,0 5.255,1.041 6.959,3.125 l 6.747,-5.824 C 9.989,-32.977 5.398,-34.941 0,-34.941 c -5.019,0 -9.303,1.692 -12.854,5.078 -3.551,3.385 -5.326,7.516 -5.326,12.393 0,4.876 1.775,9.007 5.326,12.393 C -9.303,-1.693 -5.019,0 0,0" />
      </g>
      <path
         inkscape:connector-curvature="0"
         id="path111"
         style="fill:#ffffff;fill-opacity:1;fill-rule:nonzero;stroke:none;stroke-width:0.1413382"
         d="m 68.002563,284.72361 h -1.324904 v -4.69765 h 1.324904 z m -0.09017,-5.92235 c -0.160702,0.15406 -0.351508,0.23095 -0.572278,0.23095 -0.220629,0 -0.411577,-0.0786 -0.572138,-0.2359 -0.160701,-0.15716 -0.24084,-0.34627 -0.24084,-0.56704 0,-0.22092 0.08013,-0.40989 0.24084,-0.56719 0.160561,-0.15717 0.351509,-0.2359 0.572138,-0.2359 0.22077,0 0.411576,0.0787 0.572278,0.2359 0.160419,0.1573 0.24084,0.34627 0.24084,0.56719 0,0.22077 -0.08042,0.41157 -0.24084,0.57199" />
      <g
         transform="matrix(0.1413382,0,0,-0.1413382,72.198216,277.39606)"
         id="g113"
         style="fill:#ffffff">
        <path
           inkscape:connector-curvature="0"
           id="path115"
           style="fill:#ffffff;fill-opacity:1;fill-rule:nonzero;stroke:none"
           d="m 0,0 4.331,-4.901 -10.936,-9.445 -4.262,4.829 z m -11.008,-28.905 c -1.752,-1.704 -2.628,-3.811 -2.628,-6.32 0,-2.511 0.888,-4.617 2.663,-6.321 1.775,-1.705 3.894,-2.557 6.356,-2.557 2.462,0 4.582,0.852 6.357,2.557 1.774,1.704 2.663,3.81 2.663,6.321 0,2.509 -0.889,4.616 -2.663,6.32 -1.775,1.705 -3.895,2.557 -6.357,2.557 -2.462,0 -4.592,-0.852 -6.391,-2.557 m -6.676,-18.749 c -3.551,3.362 -5.326,7.504 -5.326,12.429 0,4.923 1.775,9.066 5.326,12.428 3.551,3.361 7.906,5.042 13.067,5.042 5.161,0 9.517,-1.681 13.068,-5.042 3.551,-3.362 5.326,-7.505 5.326,-12.428 0,-4.925 -1.775,-9.067 -5.326,-12.429 -3.551,-3.362 -7.907,-5.042 -13.068,-5.042 -5.161,0 -9.516,1.68 -13.067,5.042" />
      </g>
      <g
         transform="matrix(0.1413382,0,0,-0.1413382,79.375003,284.72356)"
         id="g117"
         style="fill:#ffffff">
        <path
           inkscape:connector-curvature="0"
           id="path119"
           style="fill:#ffffff;fill-opacity:1;fill-rule:nonzero;stroke:none"
           d="m 0,0 h -9.375 v 19.601 c 0,1.893 -0.556,3.42 -1.669,4.581 -1.112,1.159 -2.546,1.74 -4.297,1.74 -1.752,0 -3.184,-0.581 -4.295,-1.74 -1.114,-1.161 -1.67,-2.688 -1.67,-4.581 V 0 h -9.374 v 33.237 h 9.374 v -3.551 c 2.509,2.935 5.753,4.403 9.73,4.403 3.267,0 6.012,-1.125 8.237,-3.374 C -1.114,28.466 0,25.496 0,21.803 Z" />
      </g>
      <g
         transform="matrix(0.1413382,0,0,-0.1413382,37.731538,287.38874)"
         id="g121"
         style="fill:#ffffff">
        <path
           inkscape:connector-curvature="0"
           id="path123"
           style="fill:#ffffff;fill-opacity:1;fill-rule:nonzero;stroke:none"
           d="m 0,0 c 10.063,0 18.42,-3.535 25.069,-10.603 l -9.525,-8.087 c -4.074,4.432 -9.165,6.649 -15.275,6.649 -5.692,0 -10.499,-1.963 -14.421,-5.885 -3.924,-3.924 -5.886,-8.792 -5.886,-14.602 0,-5.811 1.962,-10.678 5.886,-14.601 3.922,-3.925 8.729,-5.886 14.421,-5.886 6.11,0 11.201,2.215 15.275,6.65 l 9.525,-8.087 C 18.42,-61.521 10.063,-65.055 0,-65.055 c -9.046,0 -16.835,3.114 -23.363,9.345 -6.529,6.229 -9.795,13.957 -9.795,23.182 0,9.225 3.266,16.952 9.795,23.183 C -16.835,-3.116 -9.046,0 0,0" />
      </g>
      <g
         transform="matrix(0.1413382,0,0,-0.1413382,48.031008,296.43115)"
         id="g125"
         style="fill:#ffffff">
        <path
           inkscape:connector-curvature="0"
           id="path127"
           style="fill:#ffffff;fill-opacity:1;fill-rule:nonzero;stroke:none"
           d="m 0,0 h -11.86 v 24.8 c 0,2.395 -0.706,4.327 -2.111,5.796 -1.409,1.467 -3.222,2.201 -5.438,2.201 -2.216,0 -4.028,-0.734 -5.435,-2.201 -1.409,-1.469 -2.112,-3.401 -2.112,-5.796 V 0 h -11.861 v 67.392 h 11.861 V 37.559 c 3.175,3.714 7.278,5.571 12.309,5.571 4.134,0 7.608,-1.423 10.425,-4.268 C -1.408,36.016 0,32.258 0,27.586 Z" />
      </g>
      <path
         inkscape:connector-curvature="0"
         id="path129"
         style="fill:#ffffff;fill-opacity:1;fill-rule:nonzero;stroke:none;stroke-width:0.1413382"
         d="m 51.396454,296.43108 h -1.67627 v -5.94355 h 1.67627 z m -0.114338,-7.4929 c -0.203103,0.1949 -0.444367,0.292 -0.723793,0.292 -0.279425,0 -0.520689,-0.0992 -0.723933,-0.29836 -0.203246,-0.19887 -0.304868,-0.43815 -0.304868,-0.71758 0,-0.27942 0.101628,-0.51842 0.304868,-0.71743 0.203244,-0.19886 0.444508,-0.2985 0.723933,-0.2985 0.279426,0 0.52069,0.0996 0.723793,0.2985 0.203386,0.19901 0.304867,0.43801 0.304867,0.71743 0,0.27943 -0.101484,0.52069 -0.304867,0.72394" />
      <path
         inkscape:connector-curvature="0"
         id="path131"
         style="fill:#ffffff;fill-opacity:1;fill-rule:nonzero;stroke:none;stroke-width:0.1413382"
         d="M 54.863481,296.43108 H 53.18721 v -9.52506 h 1.676271 z" />
      <g
         transform="matrix(0.1413382,0,0,-0.1413382,58.02564,292.74815)"
         id="g133"
         style="fill:#ffffff">
        <path
           inkscape:connector-curvature="0"
           id="path135"
           style="fill:#ffffff;fill-opacity:1;fill-rule:nonzero;stroke:none"
           d="M 0,0 H 21.027 C 20.426,2.036 19.153,3.639 17.208,4.807 15.26,5.975 12.998,6.559 10.423,6.559 8.146,6.559 6.035,5.96 4.088,4.762 2.141,3.563 0.777,1.977 0,0 m 10.693,-16.264 c 4.192,0 7.548,1.707 10.063,5.122 l 9.615,-6.209 c -4.793,-6.524 -11.353,-9.785 -19.678,-9.785 -6.591,0 -12.13,2.111 -16.623,6.334 -4.493,4.224 -6.739,9.48 -6.739,15.77 0,6.23 2.216,11.47 6.649,15.725 4.432,4.252 9.824,6.379 16.174,6.379 6.169,0 11.471,-2.142 15.904,-6.424 4.432,-4.284 6.679,-9.57 6.739,-15.859 0,-1.319 -0.089,-2.427 -0.269,-3.325 H -0.269 c 0.719,-2.488 2.067,-4.398 4.042,-5.73 1.978,-1.332 4.283,-1.998 6.92,-1.998" />
      </g>
    </g>
  </g>
</svg>
