<?xml version="1.0" encoding="UTF-8" standalone="no"?>
<!-- Created with Inkscape (http://www.inkscape.org/) -->

<svg
   xmlns:dc="http://purl.org/dc/elements/1.1/"
   xmlns:cc="http://creativecommons.org/ns#"
   xmlns:rdf="http://www.w3.org/1999/02/22-rdf-syntax-ns#"
   xmlns:svg="http://www.w3.org/2000/svg"
   xmlns="http://www.w3.org/2000/svg"
   xmlns:sodipodi="http://sodipodi.sourceforge.net/DTD/sodipodi-0.dtd"
   xmlns:inkscape="http://www.inkscape.org/namespaces/inkscape"
   width="300"
   height="75"
   viewBox="0 0 79.375002 19.84375"
   version="1.1"
   id="svg674"
   inkscape:version="0.92.4 (unknown)"
   sodipodi:docname="logo_educacion_chile.svg">
  <defs
     id="defs668" />
  <sodipodi:namedview
     id="base"
     pagecolor="#ffffff"
     bordercolor="#666666"
     borderopacity="1.0"
     inkscape:pageopacity="0.0"
     inkscape:pageshadow="2"
     inkscape:zoom="1.7828125"
     inkscape:cx="95.633494"
     inkscape:cy="87.850236"
     inkscape:document-units="mm"
     inkscape:current-layer="layer1"
     showgrid="false"
     units="px"
     inkscape:window-width="1600"
     inkscape:window-height="863"
     inkscape:window-x="0"
     inkscape:window-y="0"
     inkscape:window-maximized="1" />
  <metadata
     id="metadata671">
    <rdf:RDF>
      <cc:Work
         rdf:about="">
        <dc:format>image/svg+xml</dc:format>
        <dc:type
           rdf:resource="http://purl.org/dc/dcmitype/StillImage" />
        <dc:title></dc:title>
      </cc:Work>
    </rdf:RDF>
  </metadata>
  <g
     inkscape:label="Capa 1"
     inkscape:groupmode="layer"
     id="layer1"
     transform="translate(0,-277.15626)">
    <g
       transform="matrix(1.4378568,0,0,1.4378568,-45.733766,211.58548)"
       id="g666">
      <g
         transform="matrix(0.09829783,0,0,-0.09829783,46.299855,55.249266)"
         id="g79">
        <path
           inkscape:connector-curvature="0"
           id="path81"
           style="fill:#6582fe;fill-opacity:1;fill-rule:nonzero;stroke:none"
           d="m 0,0 h -118.655 c -14.488,0 -27.206,10.675 -28.642,25.092 -0.691,6.938 1.174,13.431 4.766,18.651 l 2.306,3.182 28.849,34.654 c 5.788,7.53 14.826,11.972 24.311,11.972 0.204,0 0.407,-0.001 0.612,-0.006 L 28.095,93.517 c 3.184,-0.068 5.986,-2.349 6.571,-5.663 0.348,-1.969 -0.282,-3.978 -1.518,-5.549 C 28.775,76.75 13.055,56.781 5.603,47.315 3.091,44.124 -0.739,42.269 -4.801,42.269 h -114.302 c -6.719,0 -12.86,-4.446 -14.344,-10.998 -2.116,-9.341 4.964,-17.657 13.949,-17.657 H -3.346 c 2.46,0 4.781,1.141 6.285,3.088 l 26.702,34.576 c 2.053,2.658 5.751,3.747 8.726,2.188 3.872,-2.03 4.821,-6.922 2.275,-10.218 L 11.671,5.733 C 8.879,2.117 4.568,0 0,0" />
      </g>
      <g
         transform="matrix(0.09829783,0,0,-0.09829783,46.882919,59.404059)"
         id="g83">
        <path
           inkscape:connector-curvature="0"
           id="path85"
           style="fill:#6582fe;fill-opacity:1;fill-rule:nonzero;stroke:none"
           d="m 0,0 h -124.498 c -14.373,0 -27.101,10.463 -28.694,24.748 -1.862,16.694 11.093,30.904 27.366,31.131 3.468,0.048 6.681,-2.428 7.141,-5.865 0.563,-4.217 -2.737,-7.813 -6.859,-7.746 -4.347,0.072 -8.719,-1.349 -11.152,-4.952 -7.735,-11.457 0.364,-23.702 11.267,-23.702 H -3.445 c 2.527,0 4.902,1.203 6.399,3.239 L 28.47,50.845 c 2.009,2.733 5.738,3.894 8.758,2.35 3.847,-1.967 4.877,-6.786 2.429,-10.118 L 11.884,6.014 C 9.105,2.233 4.692,0 0,0" />
      </g>
      <g
         transform="matrix(0.09829783,0,0,-0.09829783,58.039958,49.930576)"
         id="g87">
        <path
           inkscape:connector-curvature="0"
           id="path89"
           style="fill:#4f4757;fill-opacity:1;fill-rule:nonzero;stroke:none"
           d="M 0,0 V -9.517 H -27.27 V 40.196 H -0.638 V 30.68 H -16.902 V 22.087 H -2.344 V 12.783 H -16.902 V 0 Z" />
      </g>
      <g
         transform="matrix(0.09829783,0,0,-0.09829783,61.034848,49.867764)"
         id="g91">
        <path
           inkscape:connector-curvature="0"
           id="path93"
           style="fill:#4f4757;fill-opacity:1;fill-rule:nonzero;stroke:none"
           d="m 0,0 c 1.846,1.657 2.77,3.811 2.77,6.463 0,2.651 -0.913,4.794 -2.735,6.427 -1.823,1.633 -4.06,2.45 -6.711,2.45 -2.652,0 -4.889,-0.817 -6.711,-2.45 -1.823,-1.633 -2.735,-3.776 -2.735,-6.427 0,-2.652 0.912,-4.794 2.735,-6.428 1.822,-1.633 4.059,-2.45 6.711,-2.45 C -4.025,-2.415 -1.8,-1.61 0,0 M 12.357,43.108 V -10.156 H 2.982 v 4.333 c -2.746,-3.457 -6.652,-5.185 -11.717,-5.185 -4.688,0 -8.653,1.68 -11.896,5.042 -3.244,3.362 -4.865,7.504 -4.865,12.429 0,4.923 1.621,9.066 4.865,12.428 3.243,3.361 7.208,5.042 11.896,5.042 5.065,0 8.971,-1.729 11.717,-5.184 v 24.359 z" />
      </g>
      <g
         transform="matrix(0.09829783,0,0,-0.09829783,63.066192,47.598952)"
         id="g95">
        <path
           inkscape:connector-curvature="0"
           id="path97"
           style="fill:#4f4757;fill-opacity:1;fill-rule:nonzero;stroke:none"
           d="m 0,0 h 9.374 v -19.601 c 0,-1.894 0.556,-3.421 1.67,-4.58 1.111,-1.162 2.543,-1.741 4.295,-1.741 1.751,0 3.185,0.579 4.297,1.741 1.113,1.159 1.669,2.686 1.669,4.58 V 0 h 9.375 v -33.237 h -9.375 v 3.551 c -2.51,-2.936 -5.752,-4.403 -9.729,-4.403 -3.267,0 -6.014,1.124 -8.239,3.374 C 1.111,-28.468 0,-25.495 0,-21.803 Z" />
      </g>
      <g
         transform="matrix(0.09829783,0,0,-0.09829783,68.490306,47.515202)"
         id="g99">
        <path
           inkscape:connector-curvature="0"
           id="path101"
           style="fill:#4f4757;fill-opacity:1;fill-rule:nonzero;stroke:none"
           d="m 0,0 c 5.398,0 9.989,-1.965 13.778,-5.894 l -6.747,-5.824 c -1.704,2.083 -4.025,3.125 -6.959,3.125 -2.414,0 -4.486,-0.841 -6.215,-2.521 -1.729,-1.681 -2.591,-3.8 -2.591,-6.356 0,-2.557 0.862,-4.676 2.591,-6.356 1.729,-1.682 3.801,-2.522 6.215,-2.522 2.934,0 5.255,1.041 6.959,3.125 l 6.747,-5.824 C 9.989,-32.977 5.398,-34.941 0,-34.941 c -5.019,0 -9.303,1.692 -12.854,5.078 -3.551,3.385 -5.326,7.516 -5.326,12.393 0,4.876 1.775,9.007 5.326,12.393 C -9.303,-1.693 -5.019,0 0,0" />
      </g>
      <g
         transform="matrix(0.09829783,0,0,-0.09829783,72.644067,49.867764)"
         id="g103">
        <path
           inkscape:connector-curvature="0"
           id="path105"
           style="fill:#4f4757;fill-opacity:1;fill-rule:nonzero;stroke:none"
           d="m 0,0 c 1.846,1.657 2.77,3.811 2.77,6.463 0,2.651 -0.913,4.794 -2.735,6.427 -1.823,1.633 -4.06,2.45 -6.711,2.45 -2.652,0 -4.889,-0.817 -6.711,-2.45 -1.823,-1.633 -2.735,-3.776 -2.735,-6.427 0,-2.652 0.912,-4.794 2.735,-6.428 1.822,-1.633 4.059,-2.45 6.711,-2.45 C -4.025,-2.415 -1.8,-1.61 0,0 M 12.357,23.081 V -10.156 H 2.982 v 4.333 c -2.746,-3.457 -6.652,-5.185 -11.717,-5.185 -4.688,0 -8.653,1.68 -11.896,5.042 -3.244,3.362 -4.865,7.504 -4.865,12.429 0,4.923 1.621,9.066 4.865,12.428 3.243,3.361 7.208,5.042 11.896,5.042 5.065,0 8.971,-1.729 11.717,-5.184 v 4.332 z" />
      </g>
      <g
         transform="matrix(0.09829783,0,0,-0.09829783,76.267109,47.515202)"
         id="g107">
        <path
           inkscape:connector-curvature="0"
           id="path109"
           style="fill:#4f4757;fill-opacity:1;fill-rule:nonzero;stroke:none"
           d="m 0,0 c 5.398,0 9.989,-1.965 13.778,-5.894 l -6.747,-5.824 c -1.704,2.083 -4.025,3.125 -6.959,3.125 -2.414,0 -4.486,-0.841 -6.215,-2.521 -1.729,-1.681 -2.591,-3.8 -2.591,-6.356 0,-2.557 0.862,-4.676 2.591,-6.356 1.729,-1.682 3.801,-2.522 6.215,-2.522 2.934,0 5.255,1.041 6.959,3.125 l 6.747,-5.824 C 9.989,-32.977 5.398,-34.941 0,-34.941 c -5.019,0 -9.303,1.692 -12.854,5.078 -3.551,3.385 -5.326,7.516 -5.326,12.393 0,4.876 1.775,9.007 5.326,12.393 C -9.303,-1.693 -5.019,0 0,0" />
      </g>
      <path
         inkscape:connector-curvature="0"
         id="path111"
         style="fill:#4f4757;fill-opacity:1;fill-rule:nonzero;stroke:none;stroke-width:0.09829783"
         d="m 79.101291,50.866077 h -0.921444 v -3.267125 h 0.921444 z m -0.06271,-4.118876 c -0.111765,0.107145 -0.244467,0.160619 -0.398008,0.160619 -0.153443,0 -0.286243,-0.05465 -0.39791,-0.164059 -0.111764,-0.109307 -0.167499,-0.24083 -0.167499,-0.394371 0,-0.15364 0.05573,-0.285064 0.167499,-0.394469 0.111667,-0.109307 0.244467,-0.164059 0.39791,-0.164059 0.153541,0 0.286243,0.05475 0.398008,0.164059 0.111568,0.109405 0.167499,0.240829 0.167499,0.394469 0,0.153541 -0.05593,0.286243 -0.167499,0.397811" />
      <g
         transform="matrix(0.09829783,0,0,-0.09829783,82.019282,45.769914)"
         id="g113">
        <path
           inkscape:connector-curvature="0"
           id="path115"
           style="fill:#4f4757;fill-opacity:1;fill-rule:nonzero;stroke:none"
           d="m 0,0 4.331,-4.901 -10.936,-9.445 -4.262,4.829 z m -11.008,-28.905 c -1.752,-1.704 -2.628,-3.811 -2.628,-6.32 0,-2.511 0.888,-4.617 2.663,-6.321 1.775,-1.705 3.894,-2.557 6.356,-2.557 2.462,0 4.582,0.852 6.357,2.557 1.774,1.704 2.663,3.81 2.663,6.321 0,2.509 -0.889,4.616 -2.663,6.32 -1.775,1.705 -3.895,2.557 -6.357,2.557 -2.462,0 -4.592,-0.852 -6.391,-2.557 m -6.676,-18.749 c -3.551,3.362 -5.326,7.504 -5.326,12.429 0,4.923 1.775,9.066 5.326,12.428 3.551,3.361 7.906,5.042 13.067,5.042 5.161,0 9.517,-1.681 13.068,-5.042 3.551,-3.362 5.326,-7.505 5.326,-12.428 0,-4.925 -1.775,-9.067 -5.326,-12.429 -3.551,-3.362 -7.907,-5.042 -13.068,-5.042 -5.161,0 -9.516,1.68 -13.067,5.042" />
      </g>
      <g
         transform="matrix(0.09829783,0,0,-0.09829783,87.01059,50.866038)"
         id="g117">
        <path
           inkscape:connector-curvature="0"
           id="path119"
           style="fill:#4f4757;fill-opacity:1;fill-rule:nonzero;stroke:none"
           d="m 0,0 h -9.375 v 19.601 c 0,1.893 -0.556,3.42 -1.669,4.581 -1.112,1.159 -2.546,1.74 -4.297,1.74 -1.752,0 -3.184,-0.581 -4.295,-1.74 -1.114,-1.161 -1.67,-2.688 -1.67,-4.581 V 0 h -9.374 v 33.237 h 9.374 v -3.551 c 2.509,2.935 5.753,4.403 9.73,4.403 3.267,0 6.012,-1.125 8.237,-3.374 C -1.114,28.466 0,25.496 0,21.803 Z" />
      </g>
      <g
         transform="matrix(0.09829783,0,0,-0.09829783,58.048412,52.71962)"
         id="g121">
        <path
           inkscape:connector-curvature="0"
           id="path123"
           style="fill:#6c8bf6;fill-opacity:1;fill-rule:nonzero;stroke:none"
           d="m 0,0 c 10.063,0 18.42,-3.535 25.069,-10.603 l -9.525,-8.087 c -4.074,4.432 -9.165,6.649 -15.275,6.649 -5.692,0 -10.499,-1.963 -14.421,-5.885 -3.924,-3.924 -5.886,-8.792 -5.886,-14.602 0,-5.811 1.962,-10.678 5.886,-14.601 3.922,-3.925 8.729,-5.886 14.421,-5.886 6.11,0 11.201,2.215 15.275,6.65 l 9.525,-8.087 C 18.42,-61.521 10.063,-65.055 0,-65.055 c -9.046,0 -16.835,3.114 -23.363,9.345 -6.529,6.229 -9.795,13.957 -9.795,23.182 0,9.225 3.266,16.952 9.795,23.183 C -16.835,-3.116 -9.046,0 0,0" />
      </g>
      <g
         transform="matrix(0.09829783,0,0,-0.09829783,65.211483,59.00843)"
         id="g125">
        <path
           inkscape:connector-curvature="0"
           id="path127"
           style="fill:#6c8bf6;fill-opacity:1;fill-rule:nonzero;stroke:none"
           d="m 0,0 h -11.86 v 24.8 c 0,2.395 -0.706,4.327 -2.111,5.796 -1.409,1.467 -3.222,2.201 -5.438,2.201 -2.216,0 -4.028,-0.734 -5.435,-2.201 -1.409,-1.469 -2.112,-3.401 -2.112,-5.796 V 0 h -11.861 v 67.392 h 11.861 V 37.559 c 3.175,3.714 7.278,5.571 12.309,5.571 4.134,0 7.608,-1.423 10.425,-4.268 C -1.408,36.016 0,32.258 0,27.586 Z" />
      </g>
      <path
         inkscape:connector-curvature="0"
         id="path129"
         style="fill:#6c8bf6;fill-opacity:1;fill-rule:nonzero;stroke:none;stroke-width:0.09829783"
         d="M 67.552082,59.008381 H 66.38627 v -4.13362 h 1.165812 z m -0.07952,-5.211161 c -0.141254,0.135553 -0.309048,0.203083 -0.503383,0.203083 -0.194335,0 -0.362129,-0.06901 -0.503481,-0.207507 -0.141353,-0.138305 -0.212029,-0.304723 -0.212029,-0.499058 0,-0.194334 0.07068,-0.360556 0.212029,-0.498959 0.141352,-0.138305 0.309146,-0.207605 0.503481,-0.207605 0.194335,0 0.362129,0.0693 0.503383,0.207605 0.141451,0.138403 0.212029,0.304625 0.212029,0.498959 0,0.194335 -0.07058,0.36213 -0.212029,0.503482" />
      <path
         inkscape:connector-curvature="0"
         id="path131"
         style="fill:#6c8bf6;fill-opacity:1;fill-rule:nonzero;stroke:none;stroke-width:0.09829783"
         d="m 69.963328,59.008381 h -1.165812 v -6.624487 h 1.165812 z" />
      <g
         transform="matrix(0.09829783,0,0,-0.09829783,72.162545,56.446975)"
         id="g133">
        <path
           inkscape:connector-curvature="0"
           id="path135"
           style="fill:#6c8bf6;fill-opacity:1;fill-rule:nonzero;stroke:none"
           d="M 0,0 H 21.027 C 20.426,2.036 19.153,3.639 17.208,4.807 15.26,5.975 12.998,6.559 10.423,6.559 8.146,6.559 6.035,5.96 4.088,4.762 2.141,3.563 0.777,1.977 0,0 m 10.693,-16.264 c 4.192,0 7.548,1.707 10.063,5.122 l 9.615,-6.209 c -4.793,-6.524 -11.353,-9.785 -19.678,-9.785 -6.591,0 -12.13,2.111 -16.623,6.334 -4.493,4.224 -6.739,9.48 -6.739,15.77 0,6.23 2.216,11.47 6.649,15.725 4.432,4.252 9.824,6.379 16.174,6.379 6.169,0 11.471,-2.142 15.904,-6.424 4.432,-4.284 6.679,-9.57 6.739,-15.859 0,-1.319 -0.089,-2.427 -0.269,-3.325 H -0.269 c 0.719,-2.488 2.067,-4.398 4.042,-5.73 1.978,-1.332 4.283,-1.998 6.92,-1.998" />
      </g>
    </g>
  </g>
</svg>
