<?xml version="1.0" encoding="UTF-8" standalone="no"?>
<!-- Created with Inkscape (http://www.inkscape.org/) -->

<svg
   xmlns:dc="http://purl.org/dc/elements/1.1/"
   xmlns:cc="http://creativecommons.org/ns#"
   xmlns:rdf="http://www.w3.org/1999/02/22-rdf-syntax-ns#"
   xmlns:svg="http://www.w3.org/2000/svg"
   xmlns="http://www.w3.org/2000/svg"
   xmlns:sodipodi="http://sodipodi.sourceforge.net/DTD/sodipodi-0.dtd"
   xmlns:inkscape="http://www.inkscape.org/namespaces/inkscape"
   width="305"
   height="325"
   viewBox="0 0 80.697914 85.989586"
   version="1.1"
   id="svg2581"
   inkscape:version="0.92.4 (unknown)"
   sodipodi:docname="work.svg">
  <defs
     id="defs2575" />
  <sodipodi:namedview
     id="base"
     pagecolor="#ffffff"
     bordercolor="#666666"
     borderopacity="1.0"
     inkscape:pageopacity="0.0"
     inkscape:pageshadow="2"
     inkscape:zoom="1.2606388"
     inkscape:cx="250.95146"
     inkscape:cy="110.71609"
     inkscape:document-units="mm"
     inkscape:current-layer="layer1"
     showgrid="false"
     units="px"
     inkscape:window-width="1600"
     inkscape:window-height="863"
     inkscape:window-x="0"
     inkscape:window-y="0"
     inkscape:window-maximized="1" />
  <metadata
     id="metadata2578">
    <rdf:RDF>
      <cc:Work
         rdf:about="">
        <dc:format>image/svg+xml</dc:format>
        <dc:type
           rdf:resource="http://purl.org/dc/dcmitype/StillImage" />
        <dc:title></dc:title>
      </cc:Work>
    </rdf:RDF>
  </metadata>
  <g
     inkscape:label="Capa 1"
     inkscape:groupmode="layer"
     id="layer1"
     transform="translate(0,-211.0104)">
    <g
       transform="matrix(1.6814805,0,0,1.6814805,-220.80932,105.97535)"
       id="g2529">
      <path
         d="m 167.80436,97.74079 h -13.61123 c -0.635,0 -1.1497,-0.514703 -1.1497,-1.14935 v 0 c 0,-0.634647 0.5147,-1.14935 1.1497,-1.14935 h 13.61123 c 0.635,0 1.14935,0.514703 1.14935,1.14935 v 0 c 0,0.634647 -0.51435,1.14935 -1.14935,1.14935"
         style="fill:#6582fe;fill-opacity:1;fill-rule:nonzero;stroke:none;stroke-width:0.03527778"
         id="path24"
         inkscape:connector-curvature="0" />
      <path
         d="m 169.88963,111.08814 v 1.15781 H 158.1707 v -1.15781 h 11.71893"
         style="fill:#6582fe;fill-opacity:1;fill-rule:nonzero;stroke:none;stroke-width:0.03527778"
         id="path26"
         inkscape:connector-curvature="0" />
      <path
         d="m 159.25902,112.01347 c 0.10019,0.60078 -0.30656,1.16911 -0.90769,1.26859 -0.60114,0.0998 -1.16911,-0.30656 -1.26895,-0.90769 -0.0998,-0.60114 0.30692,-1.16911 0.90805,-1.26895 0.60114,-0.0995 1.16911,0.30692 1.26859,0.90805"
         style="fill:#6582fe;fill-opacity:1;fill-rule:nonzero;stroke:none;stroke-width:0.03527778"
         id="path28"
         inkscape:connector-curvature="0" />
      <path
         d="m 164.55387,111.56192 h -1.15782 V 96.985845 h 1.15782 v 14.576075"
         style="fill:#6582fe;fill-opacity:1;fill-rule:nonzero;stroke:none;stroke-width:0.03527778"
         id="path30"
         inkscape:connector-curvature="0" />
      <path
         d="m 170.97795,112.01347 c 0.0998,0.60078 -0.30656,1.16911 -0.9077,1.26859 -0.60113,0.0998 -1.16946,-0.30656 -1.26894,-0.90769 -0.0995,-0.60114 0.30656,-1.16911 0.9077,-1.26895 0.60148,-0.0995 1.16946,0.30692 1.26894,0.90805"
         style="fill:#6582fe;fill-opacity:1;fill-rule:nonzero;stroke:none;stroke-width:0.03527778"
         id="path32"
         inkscape:connector-curvature="0" />
      <path
         d="m 171.37094,97.74079 h -12.85981 c -0.877,0 -1.50777,-0.858308 -1.25941,-1.7145 l 6.14115,-21.169138 c 0.16475,-0.567972 0.67734,-0.957791 1.25942,-0.957791 h 12.86016 c 0.87701,0 1.50777,0.858308 1.25942,1.7145 l -6.14116,21.169137 c -0.1651,0.567972 -0.67733,0.957792 -1.25977,0.957792"
         style="fill:#6582fe;fill-opacity:1;fill-rule:nonzero;stroke:none;stroke-width:0.03527778"
         id="path34"
         inkscape:connector-curvature="0" />
      <path
         d="m 169.60176,97.74079 h -11.2014 c -0.87771,0 -1.50812,-0.858308 -1.25977,-1.7145 l 6.14151,-21.169138 c 0.1644,-0.567972 0.67733,-0.957791 1.25942,-0.957791 h 11.2014 c 0.877,0 1.50742,0.858308 1.25906,1.7145 l -6.14115,21.169137 c -0.16475,0.567972 -0.67734,0.957792 -1.25907,0.957792"
         style="fill:#bbbbb9;fill-opacity:1;fill-rule:nonzero;stroke:none;stroke-width:0.03527778"
         id="path36"
         inkscape:connector-curvature="0" />
      <path
         d="m 171.36777,97.74079 h -13.61123 c -0.635,0 -1.1497,-0.514703 -1.1497,-1.14935 v 0 c 0,-0.634647 0.5147,-1.14935 1.1497,-1.14935 h 13.61123 c 0.63465,0 1.14935,0.514703 1.14935,1.14935 v 0 c 0,0.634647 -0.5147,1.14935 -1.14935,1.14935"
         style="fill:#6582fe;fill-opacity:1;fill-rule:nonzero;stroke:none;stroke-width:0.03527778"
         id="path38"
         inkscape:connector-curvature="0" />
      <path
         d="m 160.35369,79.773817 -2.78518,8.022872 0.65335,1.573037 3.75743,-0.710495 1.06433,-8.589434 -2.68993,-0.29598"
         style="fill:#ffffff;fill-opacity:1;fill-rule:nonzero;stroke:#4f4757;stroke-width:0.10583333;stroke-miterlimit:4;stroke-dasharray:none;stroke-opacity:1"
         id="path40"
         inkscape:connector-curvature="0" />
      <path
         d="m 162.0368,75.864333 c 0,0 -2.20275,1.247775 -2.68852,5.363281 l 2.90653,1.733903 -0.21801,-7.097184"
         style="fill:#6582fe;fill-opacity:1;fill-rule:nonzero;stroke:none;stroke-width:0.03527778"
         id="path42"
         inkscape:connector-curvature="0" />
      <path
         d="m 165.80411,74.280713 -3.76731,1.58362 -2.96545,13.21294 9.92575,3.912306 5.28885,-15.069963 c 0,0 -0.86078,-3.146425 -5.82719,-3.945466 l -2.65465,0.306563"
         style="fill:#6582fe;fill-opacity:1;fill-rule:nonzero;stroke:none;stroke-width:0.03527778"
         id="path44"
         inkscape:connector-curvature="0" />
      <path
         inkscape:connector-curvature="0"
         id="path46"
         transform="scale(0.26458333)"
         d="m 649.42383,288.06445 c -1.27205,0.0367 -2.56234,0.36902 -3.77735,1.04102 -3.56666,1.97467 -5.17675,6.24532 -3.80078,10.08398 l 6.73242,31.14063 -28.63085,-2.23438 c -2.66215,-2.75071 -7.83827,-4.19112 -11.44922,-3.37109 -5.45333,1.23867 -8.86856,6.69021 -7.33789,10.79687 1.53199,4.10667 9.2937,4.29044 13.40039,2.75977 1.04894,-0.39131 2.10132,-0.84071 3.06836,-1.35742 l 34.87304,11.79101 c 6.19465,2.09467 12.52516,-2.79569 12.0625,-9.31836 -0.0264,-0.65733 -0.42247,-4.60556 -0.59179,-5.24023 l -6.18164,-39.58008 c -0.90499,-4.066 -4.55106,-6.62172 -8.36719,-6.51172 z"
         style="fill:#ffffff;fill-opacity:1;fill-rule:nonzero;stroke:#4f4757;stroke-width:0.40000001;stroke-miterlimit:4;stroke-dasharray:none;stroke-opacity:1" />
      <path
         d="m 172.92987,76.176541 c 0,0 1.41852,0.613481 2.02283,4.271081 l -4.98758,1.532114 c 0,0 -3.26037,-3.650897 0.22437,-6.091061 l 2.74038,0.287866"
         style="fill:#6582fe;fill-opacity:1;fill-rule:nonzero;stroke:none;stroke-width:0.03527778"
         id="path50"
         inkscape:connector-curvature="0" />
      <path
         d="m 165.08515,90.252023 -7.90363,-1.016 0.11465,-0.89147 7.90363,1.015648 c 0.24589,0.03175 0.42016,0.256822 0.38841,0.503061 v 0 c -0.0314,0.246239 -0.25682,0.420511 -0.50306,0.388761"
         style="fill:#6582fe;fill-opacity:1;fill-rule:nonzero;stroke:none;stroke-width:0.03527778"
         id="path54"
         inkscape:connector-curvature="0" />
      <path
         d="m 158.22186,89.369726 -10.47327,-1.345848 c -0.60325,-0.07761 -1.08091,-0.547511 -1.1677,-1.149703 l -1.09925,-7.599539 c -0.0974,-0.671689 0.47272,-1.251303 1.14653,-1.164872 l 9.61884,1.236486 c 0.40287,0.05186 0.71966,0.3683 0.77223,0.770819 l 1.20262,9.252657"
         style="fill:#6582fe;fill-opacity:1;fill-rule:nonzero;stroke:none;stroke-width:0.03527778"
         id="path56"
         inkscape:connector-curvature="0" />
      <path
         d="m 152.40984,84.155317 c -0.0702,0.547511 -0.57079,0.933803 -1.11795,0.8636 -0.54716,-0.0702 -0.9338,-0.570795 -0.8636,-1.118306 0.0702,-0.547158 0.57115,-0.933803 1.11831,-0.863247 0.54715,0.0702 0.9338,0.570794 0.86324,1.117953"
         style="fill:#ffffff;fill-opacity:1;fill-rule:nonzero;stroke:none;stroke-width:0.03527778"
         id="path58"
         inkscape:connector-curvature="0" />
      <path
         d="m 149.08491,109.87211 0.90876,-4.08411 -3.37397,-0.45861 -0.9144,4.11198 3.37961,0.43074"
         style="fill:#ffffff;fill-opacity:1;fill-rule:nonzero;stroke:#504a5f;stroke-width:0.10583333;stroke-miterlimit:4;stroke-dasharray:none;stroke-opacity:1"
         id="path64"
         inkscape:connector-curvature="0" />
      <path
         d="m 168.9971,92.989579 c 0,0 -0.26352,2.25425 -4.31659,2.564341 h -9.74125 l -4.5974,12.81853 -4.82988,-0.77681 4.82988,-18.822462 11.06911,1.226256 7.58613,2.990145"
         style="fill:#4f4757;fill-opacity:1;fill-rule:nonzero;stroke:none;stroke-width:0.03527778"
         id="path66"
         inkscape:connector-curvature="0" />
      <path
         d="m 140.57662,104.18181 2.53753,-3.22439 -2.65889,-2.126899 -2.55623,3.245559 2.67759,2.10573"
         style="fill:#ffffff;fill-opacity:1;fill-rule:nonzero;stroke:#504a5f;stroke-width:0.10583333;stroke-miterlimit:4;stroke-dasharray:none;stroke-opacity:1"
         id="path76"
         inkscape:connector-curvature="0" />
      <path
         d="m 159.07135,89.077273 -7.50712,-2.245431 c -0.31608,-0.09454 -0.62653,-0.206375 -0.93486,-0.323144 -0.65158,-0.245887 -2.27965,-0.596195 -3.55071,1.349022 -1.62665,2.489906 -8.13576,11.870267 -8.13576,11.870267 l 3.96664,2.928053 8.66775,-11.044412 c 0.7306,-0.999066 1.89336,-1.59138 3.13161,-1.594555 l 6.70207,-0.01764 -2.33962,-0.922161"
         style="fill:#4f4757;fill-opacity:1;fill-rule:nonzero;stroke:none;stroke-width:0.03527778"
         id="path78"
         inkscape:connector-curvature="0" />
      <path
         d="m 168.72617,71.085605 c 0.13793,-0.251531 3.69887,-4.901142 0.32702,-6.363406 0,0 -0.27234,-2.184753 -2.71921,-1.948039 -2.44722,0.236714 -1.77694,0.954264 -3.33551,0.599017 -1.55822,-0.355248 -3.02542,0.44838 -2.90724,1.750836 0.11853,1.302456 1.11125,1.854906 2.90724,1.539169 1.79634,-0.315736 3.21698,-0.07902 3.21698,-0.07902 l 1.49966,0.437092 1.01106,4.064353"
         style="fill:#4f4757;fill-opacity:1;fill-rule:nonzero;stroke:none;stroke-width:0.03527778"
         id="path86"
         inkscape:connector-curvature="0" />
      <path
         d="m 169.02638,74.652541 -0.19014,-5.263445 -3.64914,1.286934 0.28928,4.219928 c 0.0677,0.980369 0.6096,1.740253 1.58997,1.672872 l 0.30692,-0.01976 c 0.98037,-0.06703 1.72049,-0.916517 1.65311,-1.896534"
         style="fill:#ffffff;fill-opacity:1;fill-rule:nonzero;stroke:#4f4757;stroke-width:0.10583333;stroke-miterlimit:4;stroke-dasharray:none;stroke-opacity:1"
         id="path88"
         inkscape:connector-curvature="0" />
      <path
         d="m 168.52685,70.117583 c 0,0 0.6865,4.396669 -3.05753,4.649258 l -0.16968,-2.081389 3.22721,-2.567869"
         style="fill:#4f4757;fill-opacity:1;fill-rule:nonzero;stroke:none;stroke-width:0.03527778"
         id="path90"
         inkscape:connector-curvature="0" />
      <path
         d="m 161.07195,69.587358 c 0.0296,0.630766 0.56515,1.117952 1.19556,1.088319 0.63042,-0.02963 1.11796,-0.564797 1.08832,-1.195564 -0.0296,-0.630414 -0.56515,-1.1176 -1.19556,-1.087967 -0.63042,0.02928 -1.11795,0.564445 -1.08832,1.195212"
         style="fill:#ffffff;fill-opacity:1;fill-rule:nonzero;stroke:#4f4757;stroke-width:0.10583333;stroke-miterlimit:4;stroke-dasharray:none;stroke-opacity:1"
         id="path92"
         inkscape:connector-curvature="0" />
      <path
         inkscape:connector-curvature="0"
         id="path94"
         transform="scale(0.26458333)"
         d="m 633.75781,247.83008 -16.83984,0.79101 c -3.26665,0.15202 -5.78873,2.92475 -5.63672,6.19141 l 0.55664,11.8418 c 0.33071,7.06666 6.32787,12.52598 13.39453,12.19531 l 0.47461,-0.0234 c 7.0667,-0.33199 12.52731,-6.32786 12.19531,-13.39453 l -0.0195,-0.39648 c 0.42792,0.11765 0.87449,0.18993 1.3418,0.16796 2.38401,-0.11198 4.22531,-2.13357 4.11328,-4.51757 -0.11187,-2.38267 -2.13556,-4.22528 -4.51953,-4.11328 -0.46679,0.0219 -0.90374,0.13601 -1.31836,0.29296 l -0.27539,-5.87695 c -0.0865,-1.83067 -1.63747,-3.24354 -3.4668,-3.1582 z"
         style="fill:#ffffff;fill-opacity:1;fill-rule:nonzero;stroke:#4f4757;stroke-width:0.40000001;stroke-miterlimit:4;stroke-dasharray:none;stroke-opacity:1" />
      <path
         d="m 167.02472,66.325221 c 0,0 -0.23989,1.705328 1.12466,1.6764 1.36419,-0.02893 -0.11783,-1.817158 -0.11783,-1.817158 l -1.00683,0.140758"
         style="fill:#4f4757;fill-opacity:1;fill-rule:nonzero;stroke:none;stroke-width:0.03527778"
         id="path100"
         inkscape:connector-curvature="0" />
      <path
         d="m 164.80928,68.968233 c 0.0187,0.151341 0.15698,0.258938 0.30868,0.240241 0.15134,-0.01905 0.25894,-0.157339 0.23989,-0.30868 -0.0187,-0.151695 -0.15699,-0.258939 -0.30868,-0.240242 -0.15135,0.01905 -0.25894,0.156986 -0.23989,0.308681"
         style="fill:#4f4757;fill-opacity:1;fill-rule:nonzero;stroke:none;stroke-width:0.03527778"
         id="path102"
         inkscape:connector-curvature="0" />
      <path
         d="m 162.44743,69.071596 c 0.019,0.151695 0.15734,0.258939 0.30868,0.240242 0.15169,-0.01905 0.25929,-0.156986 0.24024,-0.30868 -0.019,-0.151342 -0.15698,-0.258939 -0.30868,-0.239889 -0.15134,0.0187 -0.25859,0.156633 -0.24024,0.308327"
         style="fill:#4f4757;fill-opacity:1;fill-rule:nonzero;stroke:none;stroke-width:0.03527778"
         id="path104"
         inkscape:connector-curvature="0" />
      <path
         d="m 163.53787,69.074066 -0.0141,1.149703 c 0,0 0.0691,0.414866 0.65511,0.222955"
         style="fill:none;fill-opacity:1;stroke:#4f4757;stroke-width:0.22044837;stroke-linecap:round;stroke-linejoin:round;stroke-miterlimit:10;stroke-dasharray:none;stroke-opacity:1"
         id="path106"
         inkscape:connector-curvature="0" />
      <path
         d="m 165.78435,68.088405 c -0.0162,0.0035 -0.0335,0.0053 -0.0511,0.0056 l -1.25201,0.0127 c -0.1397,0.0014 -0.25435,-0.110772 -0.25576,-0.250825 -0.001,-0.1397 0.11007,-0.253294 0.25047,-0.255411 l 1.25236,-0.01305 c 0.1397,-0.0011 0.254,0.110772 0.25577,0.250825 0.001,0.122061 -0.0843,0.225072 -0.19968,0.25012"
         style="fill:#4f4757;fill-opacity:1;fill-rule:nonzero;stroke:none;stroke-width:0.03527778"
         id="path108"
         inkscape:connector-curvature="0" />
      <path
         d="m 162.93708,68.170249 c -0.0166,0.0035 -0.0339,0.0053 -0.0508,0.0056 l -0.76552,0.0078 c -0.14006,0.0014 -0.25436,-0.110773 -0.25577,-0.250473 -0.002,-0.1397 0.11078,-0.254352 0.25012,-0.255763 l 0.76553,-0.0081 c 0.1397,-0.0011 0.25435,0.111125 0.25612,0.250825 10e-4,0.122061 -0.0847,0.225072 -0.19968,0.250119"
         style="fill:#4f4757;fill-opacity:1;fill-rule:nonzero;stroke:none;stroke-width:0.03527778"
         id="path110"
         inkscape:connector-curvature="0" />
      <path
         d="m 161.85547,66.742557 c 0,0 1.20756,0.188737 2.95169,-0.243063 1.74378,-0.432153 3.1242,0.974019 3.1242,0.974019 0,0 0.37148,0.65017 0.46496,0.633236 0.0931,-0.01693 0.62442,-0.221897 0.62442,-0.221897 l -0.0215,-1.972028 -1.27459,-0.997303 -3.54577,-0.144286 -2.09691,0.461433 -0.22648,1.509889"
         style="fill:#4f4757;fill-opacity:1;fill-rule:nonzero;stroke:none;stroke-width:0.03527778"
         id="path112"
         inkscape:connector-curvature="0" />
      <path
         d="m 145.79805,109.18166 -2.7178,1.12607 -1.71803,0.12594 c -0.78951,0.0579 -1.44639,0.62936 -1.61325,1.40335 l -0.0783,0.36195 9.31898,1.16381 0.18803,-3.75038 -3.37961,-0.43074"
         style="fill:#6582fe;fill-opacity:1;fill-rule:nonzero;stroke:none;stroke-width:0.03527778"
         id="path60"
         inkscape:connector-curvature="0" />
      <path
         d="m 138.4282,101.54691 -2.91041,-0.43039 -1.53882,-0.7747 c -0.70732,-0.355957 -1.56422,-0.2032 -2.10538,0.375 l -0.25259,0.27058 7.3967,5.78626 2.08809,-3.12102 -2.67759,-2.10573"
         style="fill:#6582fe;fill-opacity:1;fill-rule:nonzero;stroke:none;stroke-width:0.03527778"
         id="path72"
         inkscape:connector-curvature="0" />
      <path
         sodipodi:nodetypes="ccccc"
         inkscape:connector-curvature="0"
         id="path2491"
         d="m 164.71414,71.670532 c 0,0.117823 -0.28239,0.213337 -0.63074,0.213336 -0.34834,-1e-6 -0.63073,-0.09551 -0.63073,-0.213336 0,-0.117822 0.22673,-0.0093 0.57508,-0.0093 0.34834,-10e-7 0.68639,-0.108548 0.68639,0.0093 z"
         style="opacity:1;fill:#4f4757;fill-opacity:1;stroke:none;stroke-width:0.13565081;stroke-linecap:round;stroke-linejoin:bevel;stroke-miterlimit:4;stroke-dasharray:none;stroke-dashoffset:0;stroke-opacity:1" />
    </g>
  </g>
</svg>
