<?xml version="1.0" encoding="UTF-8" standalone="no"?>
<!-- Created with Inkscape (http://www.inkscape.org/) -->

<svg
   xmlns:dc="http://purl.org/dc/elements/1.1/"
   xmlns:cc="http://creativecommons.org/ns#"
   xmlns:rdf="http://www.w3.org/1999/02/22-rdf-syntax-ns#"
   xmlns:svg="http://www.w3.org/2000/svg"
   xmlns="http://www.w3.org/2000/svg"
   xmlns:sodipodi="http://sodipodi.sourceforge.net/DTD/sodipodi-0.dtd"
   xmlns:inkscape="http://www.inkscape.org/namespaces/inkscape"
   width="305"
   height="325"
   viewBox="0 0 80.697914 85.989586"
   version="1.1"
   id="svg2581"
   inkscape:version="0.92.4 (unknown)"
   sodipodi:docname="password.svg">
  <defs
     id="defs2575" />
  <sodipodi:namedview
     id="base"
     pagecolor="#ffffff"
     bordercolor="#666666"
     borderopacity="1.0"
     inkscape:pageopacity="0.0"
     inkscape:pageshadow="2"
     inkscape:zoom="1.2606388"
     inkscape:cx="201.23265"
     inkscape:cy="129.69266"
     inkscape:document-units="mm"
     inkscape:current-layer="layer1"
     showgrid="false"
     units="px"
     inkscape:window-width="1600"
     inkscape:window-height="863"
     inkscape:window-x="0"
     inkscape:window-y="0"
     inkscape:window-maximized="1" />
  <metadata
     id="metadata2578">
    <rdf:RDF>
      <cc:Work
         rdf:about="">
        <dc:format>image/svg+xml</dc:format>
        <dc:type
           rdf:resource="http://purl.org/dc/dcmitype/StillImage" />
        <dc:title></dc:title>
      </cc:Work>
    </rdf:RDF>
  </metadata>
  <g
     inkscape:label="Capa 1"
     inkscape:groupmode="layer"
     id="layer1"
     transform="translate(0,-211.0104)">
    <g
       id="g3108"
       transform="matrix(1.3385435,0,0,1.3385435,-236.6248,134.45076)">
      <path
         d="m 194.21803,119.33788 c 0,0 -1.40794,0.76478 -1.60902,1.63022 h 3.46039 l 0.68439,-1.348 0.46249,1.348 h 0.46814 c 0,0 0.4385,-3.49748 -0.41698,-4.61617 l -3.04941,2.98595"
         style="fill:#4f4757;fill-opacity:1;fill-rule:nonzero;stroke:none;stroke-width:0.03527778"
         id="path270"
         inkscape:connector-curvature="0" />
      <path
         d="m 195.48697,111.83637 0.18168,4.63586 -1.6383,3.23606 c 0,0 1.83832,0.40005 2.63737,-1.11841 0.79939,-1.51832 0.59972,-2.23795 0.59972,-2.23795 l 0.41698,-4.51556 h -2.19745"
         style="fill:#ffffff;fill-opacity:1;fill-rule:nonzero;stroke:#4f4757;stroke-width:0.10583333;stroke-miterlimit:4;stroke-dasharray:none;stroke-opacity:1"
         id="path272"
         inkscape:connector-curvature="0" />
      <path
         d="m 199.59154,119.33788 c 0,0 -1.40794,0.76478 -1.60902,1.63022 h 3.46075 l 0.68403,-1.348 0.46285,1.348 h 0.46778 c 0,0 0.43851,-3.49748 -0.41698,-4.61617 l -3.04941,2.98595"
         style="fill:#4f4757;fill-opacity:1;fill-rule:nonzero;stroke:none;stroke-width:0.03527778"
         id="path274"
         inkscape:connector-curvature="0" />
      <path
         d="m 200.86048,111.83637 0.18168,4.63586 -1.6383,3.23606 c 0,0 1.83832,0.40005 2.63737,-1.11841 0.79939,-1.51832 0.59972,-2.23795 0.59972,-2.23795 l 0.41698,-4.51556 h -2.19745"
         style="fill:#ffffff;fill-opacity:1;fill-rule:nonzero;stroke:#4f4757;stroke-width:0.10583333;stroke-miterlimit:4;stroke-dasharray:none;stroke-opacity:1"
         id="path276"
         inkscape:connector-curvature="0" />
      <path
         d="m 192.35783,90.339509 c 0.13617,-6.02227 2.70863,-8.61343 2.70863,-8.61343 h 3.55564 3.87139 c 0,0 2.39853,1.60056 2.39853,8.61343 0,7.01498 0.001,6.99629 -1.26717,22.377011 h -3.2572 l -1.74837,-22.225321 c -0.002,-0.0314 -0.0494,-0.0296 -0.0494,0.002 l -0.13335,22.223201 -3.7786,0.0301 c -0.0452,2.8e-4 -0.0836,-0.0301 -0.0921,-0.0742 -0.2346,-1.215 -2.33821,-16.586161 -2.20804,-22.332911"
         style="fill:#6582fe;fill-opacity:1;fill-rule:nonzero;stroke:none;stroke-width:0.03527778"
         id="path278"
         inkscape:connector-curvature="0" />
      <path
         d="m 193.35337,81.776879 c 0.0536,-0.11077 0.21061,0.28117 0.23812,0.16087 l 2.44193,-7.03016 c 0.27764,-1.00506 -0.22613,-3.87067 -1.26929,-3.85304 -0.76553,0.0134 -1.53141,1.5166 -1.64113,2.27472 l -2.1971,6.63504 2.42747,1.81257"
         style="fill:#915344;fill-opacity:1;fill-rule:nonzero;stroke:none;stroke-width:0.03527778"
         id="path280"
         inkscape:connector-curvature="0" />
      <path
         inkscape:connector-curvature="0"
         id="path282"
         transform="scale(0.26458333)"
         d="m 693.66016,285.8125 c -1.86355,0.0659 -3.52536,0.87768 -4.44336,2.36719 -1.63068,2.65066 -0.29177,6.43828 2.99218,8.46093 2.65563,1.63499 5.76757,1.61555 7.72461,0.14844 l 21.14258,17.28321 c 3.57736,2.96001 9.01269,1.31963 10.35938,-3.12305 0.93199,-3.07733 -0.52691,-6.37525 -3.4336,-7.75391 L 701.0918,290.21094 c -0.62291,-1.21649 -1.63315,-2.33876 -2.97461,-3.16406 -1.43675,-0.88551 -3.00761,-1.28562 -4.45703,-1.23438 z"
         style="fill:#ffffff;fill-opacity:1;fill-rule:nonzero;stroke:#4f4757;stroke-width:0.40000001;stroke-miterlimit:4;stroke-dasharray:none;stroke-opacity:1" />
      <path
         d="m 195.93429,70.995639 c 0,0 1.2887,1.65418 0.44944,4.14832 l -4.33776,-1.17334 c 0,0 -0.47766,-3.13761 2.51954,-3.50697 l 1.36878,0.53199"
         style="fill:#6582fe;fill-opacity:1;fill-rule:nonzero;stroke:none;stroke-width:0.03527778"
         id="path284"
         inkscape:connector-curvature="0" />
      <path
         d="m 198.32789,69.076179 c 0,0 -1.92017,0.0169 -4.86057,1.6891 0,0 -0.647,4.80765 0.92357,6.64704 l 0.22472,3.15383 7.92974,-0.0353 c 0,0 0.43956,-5.6268 2.06974,-7.04815 l -0.54363,-2.80105 c 0,0 -2.41582,-1.66476 -5.74357,-1.60549"
         style="fill:#6582fe;fill-opacity:1;fill-rule:nonzero;stroke:none;stroke-width:0.03527778"
         id="path288"
         inkscape:connector-curvature="0" />
      <path
         inkscape:connector-curvature="0"
         id="path290"
         transform="scale(0.26458333)"
         d="m 765.98438,267.61328 c -0.52035,-0.007 -0.99282,0.11594 -1.39649,0.39844 -2.37067,1.66001 -1.58933,7.99026 -0.33203,10.59961 l 6.62305,23.58008 -23.21289,3.36523 c -1.19632,-0.65923 -2.66014,-1.02426 -4.23243,-0.95898 -3.85334,0.15987 -6.87347,2.81194 -6.74414,5.91992 0.12926,3.10934 3.35823,5.49791 7.21289,5.33789 3.11559,-0.13049 5.6852,-1.88773 6.48633,-4.19922 l 27.19336,2.50391 c 4.62002,0.45199 8.21053,-3.94815 6.83985,-8.38282 -0.12887,-0.41795 -0.30022,-0.81153 -0.50196,-1.18359 -7.1e-4,-0.002 7.8e-4,-0.002 0,-0.004 l -7.21094,-27.1875 c -1.09785,-3.26899 -7.08221,-9.73734 -10.7246,-9.78906 z"
         style="fill:#ffffff;fill-opacity:1;fill-rule:nonzero;stroke:#4f4757;stroke-width:0.40000001;stroke-miterlimit:4;stroke-dasharray:none;stroke-opacity:1" />
      <path
         d="m 203.23397,70.208239 c 0,0 1.9939,0.65088 2.69346,3.1877 l -4.25239,1.45345 c 0,0 -2.15088,-2.33398 0.127,-4.31624 l 1.43193,-0.32491"
         style="fill:#6582fe;fill-opacity:1;fill-rule:nonzero;stroke:none;stroke-width:0.03527778"
         id="path294"
         inkscape:connector-curvature="0" />
      <path
         d="m 200.04944,81.380359 h -5.19465 v -0.83185 h 5.19465 c 0.22966,0 0.41593,0.18591 0.41593,0.41557 v 0 c 0,0.23001 -0.18627,0.41628 -0.41593,0.41628"
         style="fill:#4f4757;fill-opacity:1;fill-rule:nonzero;stroke:none;stroke-width:0.03527778"
         id="path298"
         inkscape:connector-curvature="0" />
      <path
         d="m 195.82563,81.380359 h -9.77194 c -0.56268,0 -1.05657,-0.375 -1.20756,-0.91722 l -1.9057,-6.84601 c -0.16828,-0.60536 0.2868,-1.20438 0.9151,-1.20438 h 8.97502 c 0.37536,0 0.70415,0.25329 0.79975,0.61666 l 2.19533,8.35095"
         style="fill:#4f4757;fill-opacity:1;fill-rule:nonzero;stroke:none;stroke-width:0.03527778"
         id="path300"
         inkscape:connector-curvature="0" />
      <path
         d="m 189.87604,77.279669 c 0,0.51047 -0.41381,0.92463 -0.92463,0.92463 -0.51047,0 -0.92428,-0.41416 -0.92428,-0.92463 0,-0.51047 0.41381,-0.92428 0.92428,-0.92428 0.51082,0 0.92463,0.41381 0.92463,0.92428"
         style="fill:#ffffff;fill-opacity:1;fill-rule:nonzero;stroke:none;stroke-width:0.03527778"
         id="path302"
         inkscape:connector-curvature="0" />
      <path
         d="m 201.09155,64.851659 c 0.86713,0.0797 3.59198,0.48084 3.41383,2.36397 -0.0875,0.92463 -0.77258,1.70321 -1.66934,1.94416 -0.88124,0.23706 -2.09515,0.0734 -3.02649,-1.92723 -1.35466,-2.90901 0.20038,-2.65994 0.80293,-2.47721 0.15698,0.048 0.31573,0.0811 0.47907,0.0963"
         style="fill:#4f4757;fill-opacity:1;fill-rule:nonzero;stroke:none;stroke-width:0.03527778"
         id="path304"
         inkscape:connector-curvature="0" />
      <path
         d="m 193.56539,62.578359 c 0.0984,2.47192 2.18193,4.39632 4.65384,4.29825 2.47192,-0.0984 4.57941,-2.38019 4.48134,-4.85211 -0.0981,-2.47191 -2.02283,-4.4002 -4.82918,-3.90878 -2.43699,0.42651 -4.40407,1.99038 -4.306,4.46264"
         style="fill:#4f4757;fill-opacity:1;fill-rule:nonzero;stroke:none;stroke-width:0.03527778"
         id="path306"
         inkscape:connector-curvature="0" />
      <path
         inkscape:connector-curvature="0"
         id="path308"
         transform="scale(0.26458333)"
         d="m 754.93555,241.86914 -12.43164,0.54883 0.73828,19.68164 c -3.76224,0.98948 -5.98242,2.32812 -5.98242,2.32812 l 9.99218,8.69727 15.76563,-9.88867 c -2.57789,-0.96368 -5.0385,-1.5474 -7.34961,-1.86524 z"
         style="fill:#ffffff;fill-opacity:1;fill-rule:nonzero;stroke:#4f4757;stroke-width:0.40000001;stroke-miterlimit:4;stroke-dasharray:none;stroke-opacity:1" />
      <path
         d="m 199.87094,64.234649 c 0,0 -0.19015,3.94406 -3.2325,4.00192 l -0.0836,-1.96815 3.31612,-2.03377"
         style="fill:#4f4757;fill-opacity:1;fill-rule:nonzero;stroke:none;stroke-width:0.03527778"
         id="path310"
         inkscape:connector-curvature="0" />
      <path
         d="m 195.34021,63.821199 c 0.0254,0.63359 -0.46813,1.16769 -1.10172,1.19309 -0.63359,0.025 -1.1677,-0.46849 -1.1931,-1.10207 -0.025,-0.63359 0.46849,-1.1677 1.10208,-1.19275 0.63359,-0.0254 1.1677,0.46814 1.19274,1.10173"
         style="fill:#fffcfc;fill-opacity:1;fill-rule:nonzero;stroke:#4f4757;stroke-width:0.10583333;stroke-miterlimit:4;stroke-dasharray:none;stroke-opacity:1"
         id="path314"
         inkscape:connector-curvature="0" />
      <path
         inkscape:connector-curvature="0"
         id="path316"
         transform="scale(0.26458333)"
         d="m 740.14648,223.18945 c -2.89999,0.116 -8.05988,5.50784 -7.86523,10.42383 l 0.45313,11.45117 c 0.26532,6.66002 5.87381,10.46146 12.53515,10.19727 4.93639,-0.19691 10.36431,-4.97103 11.42774,-10.64649 0.40944,0.10883 0.83387,0.17969 1.27929,0.16211 2.396,-0.096 4.26051,-2.11509 4.16602,-4.50976 -0.096,-2.39467 -2.11377,-4.26006 -4.50977,-4.16406 -0.34296,0.0136 -0.67129,0.0761 -0.98828,0.16406 l -0.2168,-5.44531 c -0.11467,-2.89868 -2.58179,-5.17854 -5.48046,-5.0625 z"
         style="fill:#fff8f6;fill-opacity:1;fill-rule:nonzero;stroke:#4f4757;stroke-width:0.40000001;stroke-miterlimit:4;stroke-dasharray:none;stroke-opacity:1" />
      <path
         d="m 196.81306,63.350239 c 0.0155,0.13935 0.14111,0.23954 0.28046,0.22401 0.13935,-0.0155 0.23989,-0.14111 0.22401,-0.2801 -0.0155,-0.1397 -0.14111,-0.23989 -0.28046,-0.22437 -0.13934,0.0155 -0.23953,0.14111 -0.22401,0.28046"
         style="fill:#4f4757;fill-opacity:1;fill-rule:nonzero;stroke:none;stroke-width:0.03527778"
         id="path318"
         inkscape:connector-curvature="0" />
      <path
         d="m 194.49002,63.423269 c 0.0155,0.13934 0.14111,0.23953 0.28046,0.22401 0.13934,-0.0155 0.23953,-0.14111 0.22401,-0.28011 -0.0159,-0.1397 -0.14146,-0.23989 -0.28046,-0.22436 -0.13935,0.0155 -0.23989,0.14111 -0.22401,0.28046"
         style="fill:#4f4757;fill-opacity:1;fill-rule:nonzero;stroke:none;stroke-width:0.03527778"
         id="path320"
         inkscape:connector-curvature="0" />
      <path
         d="m 195.49543,63.758049 -0.0395,0.7299 c 0,0 0.0582,0.3817 0.59832,0.21272"
         style="fill:none;stroke:#4f4757;stroke-width:0.19105281;stroke-linecap:round;stroke-linejoin:round;stroke-miterlimit:10;stroke-dasharray:none;stroke-opacity:1"
         id="path322"
         inkscape:connector-curvature="0" />
      <path
         d="m 197.71864,62.554019 c -0.0148,0.003 -0.0307,0.005 -0.0469,0.005 l -1.1497,-0.003 c -0.12806,-3.5e-4 -0.23178,-0.10477 -0.23142,-0.23318 0,-0.12842 0.10371,-0.23178 0.23283,-0.23213 l 1.1497,0.004 c 0.12841,3.5e-4 0.23213,0.10477 0.23178,0.23318 -3.6e-4,0.11219 -0.0801,0.20532 -0.18627,0.22719"
         style="fill:#4f4757;fill-opacity:1;fill-rule:nonzero;stroke:none;stroke-width:0.03527778"
         id="path324"
         inkscape:connector-curvature="0" />
      <path
         d="m 194.94969,62.601289 c -0.0152,0.003 -0.031,0.005 -0.0466,0.005 l -0.70309,-0.002 c -0.12841,0 -0.23213,-0.10407 -0.23177,-0.23283 3.5e-4,-0.12841 0.10477,-0.23213 0.23283,-0.23178 l 0.70273,0.002 c 0.12877,7e-4 0.23248,0.10477 0.23213,0.23318 -3.5e-4,0.11219 -0.0801,0.20567 -0.18627,0.22719"
         style="fill:#4f4757;fill-opacity:1;fill-rule:nonzero;stroke:none;stroke-width:0.03527778"
         id="path326"
         inkscape:connector-curvature="0" />
      <path
         d="m 195.42947,59.315519 c 0,0 2.57633,3.48262 5.02249,3.48545 0,0 1.25166,-2.28107 -0.85513,-3.68512 -2.10679,-1.40406 -3.77366,-0.23283 -3.77366,-0.23283 l -0.3937,0.4325"
         style="fill:#4f4757;fill-opacity:1;fill-rule:nonzero;stroke:none;stroke-width:0.03527778"
         id="path328"
         inkscape:connector-curvature="0" />
      <path
         d="m 197.18136,59.840809 c 0,0 -1.27035,1.24601 -3.44629,1.61854 0,0 0.34149,-2.21121 2.25461,-2.58304 l 1.19168,0.9645"
         style="fill:#4f4757;fill-opacity:1;fill-rule:nonzero;stroke:none;stroke-width:0.03527778"
         id="path330"
         inkscape:connector-curvature="0" />
      <path
         d="m 198.81648,61.739099 c 0,0 -0.078,1.7399 1.03082,1.90324 l 0.14852,-1.58221 -1.17934,-0.32103"
         style="fill:#4f4757;fill-opacity:1;fill-rule:nonzero;stroke:none;stroke-width:0.03527778"
         id="path332"
         inkscape:connector-curvature="0" />
      <path
         d="m 197.08117,64.901049 c 0,0 -0.14182,0.55598 -0.99413,0.62583"
         style="fill:none;stroke:#4f4757;stroke-width:0.19105281;stroke-linecap:round;stroke-linejoin:round;stroke-miterlimit:10;stroke-dasharray:none;stroke-opacity:1"
         id="path336"
         inkscape:connector-curvature="0" />
      <path
         d="m 195.60727,60.868799 c 0,0 -2.04188,1.14582 -2.81341,0.11148 0,0 0.92075,-0.0452 1.4224,-0.91087 l 1.39101,0.79939"
         style="fill:#4f4757;fill-opacity:1;fill-rule:nonzero;stroke:none;stroke-width:0.03527778"
         id="path338"
         inkscape:connector-curvature="0" />
      <path
         d="m 194.21626,60.069409 c 0,0 0.44309,-2.63384 3.65513,-1.95369 l -0.25894,1.19204 -3.39619,0.76165"
         style="fill:#4f4757;fill-opacity:1;fill-rule:nonzero;stroke:none;stroke-width:0.03527778"
         id="path340"
         inkscape:connector-curvature="0" />
    </g>
    <rect
       style="opacity:1;fill:#ffffff;fill-opacity:1;stroke:#4f4757;stroke-width:0.15247129;stroke-linecap:round;stroke-linejoin:bevel;stroke-miterlimit:4;stroke-dasharray:none;stroke-dashoffset:0;stroke-opacity:1"
       id="rect3502"
       width="34.458351"
       height="6.0274558"
       x="42.354446"
       y="249.19516" />
    <g
       id="g3500"
       transform="matrix(1.5025312,0,0,1.5025312,-35.576244,-97.823771)">
      <circle
         r="0.93634623"
         cy="232.9337"
         cx="53.992149"
         id="path3482"
         style="opacity:1;fill:#6582fe;fill-opacity:1;stroke:none;stroke-width:0.07419243;stroke-linecap:round;stroke-linejoin:bevel;stroke-miterlimit:4;stroke-dasharray:none;stroke-dashoffset:0;stroke-opacity:1" />
      <circle
         style="opacity:1;fill:#6582fe;fill-opacity:1;stroke:none;stroke-width:0.07419243;stroke-linecap:round;stroke-linejoin:bevel;stroke-miterlimit:4;stroke-dasharray:none;stroke-dashoffset:0;stroke-opacity:1"
         id="circle3484"
         cx="56.645126"
         cy="232.9337"
         r="0.93634623" />
      <circle
         r="0.93634623"
         cy="232.9337"
         cx="59.298107"
         id="circle3486"
         style="opacity:1;fill:#6582fe;fill-opacity:1;stroke:none;stroke-width:0.07419243;stroke-linecap:round;stroke-linejoin:bevel;stroke-miterlimit:4;stroke-dasharray:none;stroke-dashoffset:0;stroke-opacity:1" />
      <circle
         style="opacity:1;fill:#6582fe;fill-opacity:1;stroke:none;stroke-width:0.07419243;stroke-linecap:round;stroke-linejoin:bevel;stroke-miterlimit:4;stroke-dasharray:none;stroke-dashoffset:0;stroke-opacity:1"
         id="circle3488"
         cx="61.951088"
         cy="232.9337"
         r="0.93634623" />
      <circle
         r="0.93634623"
         cy="232.9337"
         cx="64.604065"
         id="circle3490"
         style="opacity:1;fill:#6582fe;fill-opacity:1;stroke:none;stroke-width:0.07419243;stroke-linecap:round;stroke-linejoin:bevel;stroke-miterlimit:4;stroke-dasharray:none;stroke-dashoffset:0;stroke-opacity:1" />
      <circle
         style="opacity:1;fill:#6582fe;fill-opacity:1;stroke:none;stroke-width:0.07419243;stroke-linecap:round;stroke-linejoin:bevel;stroke-miterlimit:4;stroke-dasharray:none;stroke-dashoffset:0;stroke-opacity:1"
         id="circle3492"
         cx="67.25705"
         cy="232.9337"
         r="0.93634623" />
    </g>
  </g>
</svg>
