<?xml version="1.0" encoding="UTF-8" standalone="no"?>
<!-- Generator: Adobe Illustrator 19.0.0, SVG Export Plug-In . SVG Version: 6.00 Build 0)  -->

<svg
   xmlns:dc="http://purl.org/dc/elements/1.1/"
   xmlns:cc="http://creativecommons.org/ns#"
   xmlns:rdf="http://www.w3.org/1999/02/22-rdf-syntax-ns#"
   xmlns:svg="http://www.w3.org/2000/svg"
   xmlns="http://www.w3.org/2000/svg"
   xmlns:sodipodi="http://sodipodi.sourceforge.net/DTD/sodipodi-0.dtd"
   xmlns:inkscape="http://www.inkscape.org/namespaces/inkscape"
   version="1.1"
   id="Capa_1"
   x="0px"
   y="0px"
   viewBox="0 0 60 60"
   style="enable-background:new 0 0 60 60;"
   xml:space="preserve"
   sodipodi:docname="course.svg"
   inkscape:version="0.92.3 (2405546, 2018-03-11)"><metadata
   id="metadata39"><rdf:RDF><cc:Work
       rdf:about=""><dc:format>image/svg+xml</dc:format><dc:type
         rdf:resource="http://purl.org/dc/dcmitype/StillImage" /></cc:Work></rdf:RDF></metadata><defs
   id="defs37" /><sodipodi:namedview
   pagecolor="#ffffff"
   bordercolor="#666666"
   borderopacity="1"
   objecttolerance="10"
   gridtolerance="10"
   guidetolerance="10"
   inkscape:pageopacity="0"
   inkscape:pageshadow="2"
   inkscape:window-width="1366"
   inkscape:window-height="713"
   id="namedview35"
   showgrid="false"
   inkscape:zoom="3.9333333"
   inkscape:cx="-23.644068"
   inkscape:cy="30"
   inkscape:window-x="0"
   inkscape:window-y="27"
   inkscape:window-maximized="1"
   inkscape:current-layer="Capa_1" />
<path
   d="M13,0c-1.547,0-3.033,0.662-4.078,1.817C7.895,2.954,7.389,4.476,7.525,6H7.5v48.958C7.5,57.738,9.762,60,12.542,60H52.5V11  V9V0H13z M9.5,54.958V9.998c0.836,0.629,1.875,1.002,3,1.002v46.996C10.842,57.973,9.5,56.621,9.5,54.958z M50.5,58h-36V11h3v25.201  c0,0.682,0.441,1.262,1.099,1.444c0.137,0.037,0.273,0.056,0.408,0.056c0.015,0,0.029-0.005,0.044-0.006  c0.045-0.001,0.088-0.012,0.133-0.017c0.103-0.012,0.202-0.033,0.299-0.066c0.048-0.016,0.093-0.035,0.138-0.056  c0.094-0.043,0.18-0.097,0.263-0.159c0.036-0.027,0.073-0.05,0.106-0.08c0.111-0.099,0.212-0.211,0.292-0.346l4.217-7.028  l4.217,7.029c0.327,0.545,0.939,0.801,1.55,0.687c0.045-0.008,0.089-0.002,0.134-0.014c0.657-0.183,1.099-0.763,1.099-1.444V11h19  V58z M29.64,9.483l-0.003,0.007L29.5,9.764v0.042l-0.1,0.23l0.1,0.152v0.112V34.39l-5-8.333l-5,8.333V10.236L21.118,7h9.764  L29.64,9.483z M32.118,9l2-4H19.882l-2,4h-4.67c-1.894,0-3.516-1.379-3.693-3.14c-0.101-0.998,0.214-1.957,0.887-2.701  C11.071,2.422,12.017,2,13,2h37.5v1h-5c-0.553,0-1,0.447-1,1s0.447,1,1,1h5v1h-4c-0.553,0-1,0.447-1,1s0.447,1,1,1h4v1H32.118z"
   id="path2"
   style="fill:#333273;fill-opacity:1" />
<g
   id="g4">
</g>
<g
   id="g6">
</g>
<g
   id="g8">
</g>
<g
   id="g10">
</g>
<g
   id="g12">
</g>
<g
   id="g14">
</g>
<g
   id="g16">
</g>
<g
   id="g18">
</g>
<g
   id="g20">
</g>
<g
   id="g22">
</g>
<g
   id="g24">
</g>
<g
   id="g26">
</g>
<g
   id="g28">
</g>
<g
   id="g30">
</g>
<g
   id="g32">
</g>
</svg>