<?xml version="1.0" encoding="UTF-8" standalone="no"?>
<svg
   xmlns:dc="http://purl.org/dc/elements/1.1/"
   xmlns:cc="http://creativecommons.org/ns#"
   xmlns:rdf="http://www.w3.org/1999/02/22-rdf-syntax-ns#"
   xmlns:svg="http://www.w3.org/2000/svg"
   xmlns="http://www.w3.org/2000/svg"
   xmlns:sodipodi="http://sodipodi.sourceforge.net/DTD/sodipodi-0.dtd"
   xmlns:inkscape="http://www.inkscape.org/namespaces/inkscape"
   id="Layer_1"
   style="enable-background:new 0 0 256 256;"
   version="1.1"
   viewBox="0 0 256 256"
   xml:space="preserve"
   sodipodi:docname="user.svg"
   inkscape:version="0.92.3 (2405546, 2018-03-11)"><metadata
     id="metadata13"><rdf:RDF><cc:Work
         rdf:about=""><dc:format>image/svg+xml</dc:format><dc:type
           rdf:resource="http://purl.org/dc/dcmitype/StillImage" /></cc:Work></rdf:RDF></metadata><defs
     id="defs11" /><sodipodi:namedview
     pagecolor="#ffffff"
     bordercolor="#666666"
     borderopacity="1"
     objecttolerance="10"
     gridtolerance="10"
     guidetolerance="10"
     inkscape:pageopacity="0"
     inkscape:pageshadow="2"
     inkscape:window-width="1366"
     inkscape:window-height="713"
     id="namedview9"
     showgrid="false"
     inkscape:zoom="0.921875"
     inkscape:cx="128"
     inkscape:cy="128"
     inkscape:window-x="0"
     inkscape:window-y="27"
     inkscape:window-maximized="1"
     inkscape:current-layer="Layer_1" /><g
     id="g827"><path
       style="fill:#333273;fill-opacity:1"
       d="m 81.2,114.2 c 5.4,15 13.6,25.6 24.3,31.7 6.8,3.8 14.4,5.8 22.1,5.8 0.1,0 0.3,0 0.4,0 7.7,0 15.7,-1.9 22.6,-5.8 10.7,-6.1 18.8,-16.7 24.2,-31.7 4.8,-13 10.5,-30.2 11.7,-48.1 C 187.7,47.9 182.2,31 171.3,19.6 160.7,8.6 145.2,2.8 128.2,3.3 110.8,2.8 95.4,8.6 84.7,19.7 73.8,31 68.2,47.9 69.4,66.2 c 1.3,17.8 7,35 11.8,48 z M 91.9,26.6 c 8.7,-9 21.4,-13.8 36.2,-13.3 14.5,-0.5 27.3,4.3 35.9,13.3 9,9.3 13.5,23.5 12.5,38.8 -1.2,16.6 -6.6,32.9 -11.2,45.3 -4.6,12.7 -11.2,21.5 -19.8,26.4 -5.3,3 -11.4,4.6 -17.7,4.5 -6.2,0 -12.3,-1.6 -17.6,-4.5 -8.6,-4.9 -15.2,-13.7 -19.8,-26.4 v 0 C 86,98.4 80.6,82 79.4,65.5 78.4,50.1 82.9,35.9 91.9,26.6 Z"
       id="path2"
       inkscape:connector-curvature="0" /><path
       style="fill:#333273;fill-opacity:1"
       d="m 245.4,211.5 c -2.9,-15.6 -13.4,-28.6 -28.1,-34.7 -19.9,-8.2 -47.8,-20.3 -48.1,-20.5 l -2.7,-1.2 -2.3,1.7 c -0.9,0.7 -3.5,2.5 -5.1,3.5 -5.4,3.4 -11.2,5.9 -17.3,7.2 -3.6,0.9 -7,1.3 -10.5,1.4 -1,0 -2,0 -3.1,-0.1 h -0.3 -0.3 c -1,0.1 -2,0.1 -3.2,0.1 -3.3,-0.1 -6.7,-0.6 -10.4,-1.5 -6,-1.4 -11.8,-3.8 -17.4,-7.4 -1.4,-0.8 -4,-2.7 -4.9,-3.3 l -2.3,-1.8 -2.7,1.2 c -0.3,0.1 -28.2,12.3 -48.1,20.5 -14.7,6.1 -25.2,19 -28.1,34.7 L 2.7,252.5 H 253 Z m -230.5,31.2 5.5,-29.4 c 2.3,-12.3 10.5,-22.5 22.1,-27.2 16.4,-6.7 38.2,-16.2 45.7,-19.4 1.1,0.8 2.4,1.6 3.3,2.2 6.4,4 13.3,6.9 20.3,8.5 4.3,1 8.3,1.6 12.3,1.7 h 0.5 c 1.1,0 2.2,0 3.4,-0.1 1.1,0.1 2.2,0.1 3.4,0.1 h 0.5 c 4,-0.1 8,-0.7 12.3,-1.7 7.1,-1.6 13.9,-4.5 20.1,-8.4 1.1,-0.6 2.4,-1.5 3.5,-2.3 7.5,3.2 29.2,12.7 45.7,19.4 11.6,4.8 19.8,15 22.1,27.2 l 5.5,29.4 z"
       id="path4"
       inkscape:connector-curvature="0" /></g></svg>